<svg id="eQpwFauhTvt1" xmlns="http://www.w3.org/2000/svg" xmlns:xlink="http://www.w3.org/1999/xlink" viewBox="0 0 300 300" shape-rendering="geometricPrecision" text-rendering="geometricPrecision"><defs><filter id="eQpwFauhTvt3-filter" x="-150%" width="400%" y="-150%" height="400%"><feGaussianBlur id="eQpwFauhTvt3-filter-drop-shadow-0-blur" in="SourceAlpha" stdDeviation="2,1"/><feOffset id="eQpwFauhTvt3-filter-drop-shadow-0-offset" dx="-10" dy="4" result="tmp"/><feFlood id="eQpwFauhTvt3-filter-drop-shadow-0-flood" flood-color="rgba(0,0,0,0.1)"/><feComposite id="eQpwFauhTvt3-filter-drop-shadow-0-composite" operator="in" in2="tmp"/><feMerge id="eQpwFauhTvt3-filter-drop-shadow-0-merge" result="result"><feMergeNode id="eQpwFauhTvt3-filter-drop-shadow-0-merge-node-1"/><feMergeNode id="eQpwFauhTvt3-filter-drop-shadow-0-merge-node-2" in="SourceGraphic"/></feMerge></filter><linearGradient id="eQpwFauhTvt5-fill" x1="0" y1="0.5" x2="1" y2="0.5" spreadMethod="pad" gradientUnits="objectBoundingBox" gradientTransform="translate(0 0)"><stop id="eQpwFauhTvt5-fill-0" offset="0%" stop-color="#8a55ff"/><stop id="eQpwFauhTvt5-fill-1" offset="100%" stop-color="#00ff53"/></linearGradient><linearGradient id="eQpwFauhTvt7-fill" x1="2.486245" y1="1.283438" x2="2.486067" y2="-0.246325" spreadMethod="pad" gradientUnits="objectBoundingBox" gradientTransform="translate(0 0)"><stop id="eQpwFauhTvt7-fill-0" offset="0%" stop-color="#000"/><stop id="eQpwFauhTvt7-fill-1" offset="98%" stop-color="#00c0ff"/><stop id="eQpwFauhTvt7-fill-2" offset="100%" stop-color="rgba(0,193,255,0.4)"/></linearGradient><linearGradient id="eQpwFauhTvt8-fill" x1="2.486245" y1="1.283438" x2="2.486067" y2="-0.246325" spreadMethod="pad" gradientUnits="objectBoundingBox" gradientTransform="translate(0 0)"><stop id="eQpwFauhTvt8-fill-0" offset="0%" stop-color="#000"/><stop id="eQpwFauhTvt8-fill-1" offset="98%" stop-color="#00c0ff"/><stop id="eQpwFauhTvt8-fill-2" offset="100%" stop-color="rgba(0,193,255,0.4)"/></linearGradient><linearGradient id="eQpwFauhTvt9-fill" x1="2.486245" y1="1.283438" x2="2.486067" y2="-0.246325" spreadMethod="pad" gradientUnits="objectBoundingBox" gradientTransform="translate(0 0)"><stop id="eQpwFauhTvt9-fill-0" offset="0%" stop-color="#000"/><stop id="eQpwFauhTvt9-fill-1" offset="98%" stop-color="#00c0ff"/><stop id="eQpwFauhTvt9-fill-2" offset="100%" stop-color="rgba(0,193,255,0.4)"/></linearGradient><linearGradient id="eQpwFauhTvt11-fill" x1="2.486245" y1="1.283438" x2="2.486067" y2="-0.246325" spreadMethod="pad" gradientUnits="objectBoundingBox" gradientTransform="translate(0 0)"><stop id="eQpwFauhTvt11-fill-0" offset="0%" stop-color="#f181c1"/><stop id="eQpwFauhTvt11-fill-1" offset="98%" stop-color="#00c0ff"/><stop id="eQpwFauhTvt11-fill-2" offset="100%" stop-color="rgba(0,193,255,0.4)"/></linearGradient><linearGradient id="eQpwFauhTvt12-fill" x1="2.486245" y1="1.283438" x2="2.486067" y2="-0.246325" spreadMethod="pad" gradientUnits="objectBoundingBox" gradientTransform="translate(0 0)"><stop id="eQpwFauhTvt12-fill-0" offset="0%" stop-color="#f181c1"/><stop id="eQpwFauhTvt12-fill-1" offset="100%" stop-color="#00c0ff"/><stop id="eQpwFauhTvt12-fill-2" offset="100%" stop-color="rgba(0,193,255,0.4)"/></linearGradient><linearGradient id="eQpwFauhTvt13-fill" x1="2.486245" y1="1.283438" x2="2.486067" y2="-0.246325" spreadMethod="pad" gradientUnits="objectBoundingBox" gradientTransform="translate(0 0)"><stop id="eQpwFauhTvt13-fill-0" offset="0%" stop-color="#f181c1"/><stop id="eQpwFauhTvt13-fill-1" offset="98%" stop-color="#00c0ff"/><stop id="eQpwFauhTvt13-fill-2" offset="100%" stop-color="rgba(0,193,255,0.4)"/></linearGradient></defs><g transform="matrix(1.8 0 0 1.8-120.003076-75.566933)" filter="url(#eQpwFauhTvt3-filter)"><path d="M175.459701,115.909051c0,49.392256-.000001,49.392256-11.11112,49.392256-.000001,0-26.254569,0-26.25457,0-11.111119,0-11.11112,0-11.11112-49.392256c0-1.018591-15.828072,0-15.828072,0s-.695785-6.486466,0-6.486466c0,0,80.737219,0,80.737219,0c.983742,0,0,6.486466,0,6.486466s-15.425434-.882443-16.432337,0Z" transform="translate(-1.586622-6.843248)" fill="#fff" stroke-width="0.6"/><path d="M147.281759,91.61898c0,0,0-7.866103,0-7.866103s23.901957,0,23.901955,0c.282928,0-.55853-5,0-5c.000001,0,19.731635,0,19.731635,0c.548926,0-.000005,5-.000005,5s24.330916,0,24.330916,0c.3963,0,.486968,7.866103,0,7.866103-.000003,0-67.964505,0-67.964501,0Z" transform="matrix(1.013601 0 0 1-33.897501 9.247123)" fill="url(#eQpwFauhTvt5-fill)" stroke-width="0.6"/><g><path d="M125.746042,111.845785c0-2.311696,6.666664-2.588064,6.666665.000003l-.000001,36.634767c.000001,2.511349-6.666664,2.200584-6.666664.000002q.000001-36.634772,0-36.634772Z" transform="matrix(1 0 0 0.925743 34.603506 9.601835)" fill="url(#eQpwFauhTvt11-fill)" stroke-width="0.6"/><path d="M125.746042,111.845788c0-2.311696,6.666664-2.588067,6.666665,0l-.000001,36.634767c.000001,2.511349-6.666664,2.200584-6.666664.000002q.000001-36.634769,0-36.634769Z" transform="matrix(1 0 0 0.925743 21.299615 9.917684)" fill="url(#eQpwFauhTvt12-fill)" stroke-width="0.6"/><path d="M125.746042,111.845785c0-2.311696,6.666664-2.588064,6.666665.000003l-.000001,36.634767c.000001,2.511349-6.666664,2.200584-6.666664.000002q.000001-36.634772,0-36.634772Z" transform="matrix(1 0 0 0.925743 7.682344 9.809309)" fill="url(#eQpwFauhTvt13-fill)" stroke-width="0.6"/></g></g></svg>
