<svg id="exXbUiB51mM1" xmlns="http://www.w3.org/2000/svg" xmlns:xlink="http://www.w3.org/1999/xlink" viewBox="0 0 300 300" shape-rendering="geometricPrecision" text-rendering="geometricPrecision"><defs><linearGradient id="exXbUiB51mM2-fill" x1="0.497543" y1="0" x2="0.500003" y2="1" spreadMethod="pad" gradientUnits="objectBoundingBox" gradientTransform="translate(0 0)"><stop id="exXbUiB51mM2-fill-0" offset="0%" stop-color="#5e65fc"/><stop id="exXbUiB51mM2-fill-1" offset="100%" stop-color="#5e65fc"/></linearGradient></defs><ellipse rx="72.314" ry="55.8047" transform="matrix(2.07429 0 0 2.68795 149.999 150)" fill="url(#exXbUiB51mM2-fill)"/><path d="M152.399538,127.571124c0,1.430304-.000003,18.499998,0,18.5c1.500803,1.5238,37.301499,4.353155,37.600459,4c.328111-.387591-35.147851-65.016444-40.100959-65.016444-5.143247,0-40.304054,64.689257-40.099959,65.016444.213035.341518,36.123184-2.507923,37.600459-4c.000003-.000003,0-17.002756,0-18.5c0-1.063284,5-.962872,5,0Z" transform="matrix(1 1.732051-1.732051 1 212.137809-239.26418)" fill="#fff" stroke-width="0.6"/></svg>
